<svg width="138" height="26" viewBox="0 0 138 26" fill="none" xmlns="http://www.w3.org/2000/svg">
<path d="M96.4305 10.3536C96.4305 10.5274 96.4305 10.7021 96.4305 10.8758C96.4305 14.9599 96.4287 19.0431 96.4314 23.1272C96.4314 23.7023 96.337 24.2457 95.9903 24.7229C95.3455 25.6103 94.242 25.9631 93.1579 25.6271C92.1541 25.3166 91.5111 24.4433 91.489 23.3372C91.4767 22.6941 91.4855 22.0511 91.4855 21.408C91.4855 15.2987 91.4846 9.18929 91.4864 3.07992C91.4864 2.7756 91.4811 2.47392 91.5534 2.1696C91.7951 1.15343 92.439 0.527146 93.4428 0.340143C94.4087 0.161078 95.2811 0.437173 95.8924 1.23899C96.6325 2.21018 97.3223 3.22017 98.0333 4.21341C100.7 7.93848 103.367 11.6636 106.035 15.3877C106.115 15.4998 106.178 15.6294 106.374 15.7494C106.374 15.5209 106.374 15.3516 106.374 15.1831C106.374 11.0514 106.374 6.91966 106.375 2.78706C106.375 1.89086 106.698 1.15167 107.466 0.655049C108.272 0.133733 109.135 0.0737509 109.991 0.491862C110.824 0.898507 111.248 1.61212 111.313 2.5339C111.326 2.7262 111.32 2.91938 111.32 3.11256C111.32 9.68855 111.32 16.2637 111.32 22.8397C111.32 23.0002 111.323 23.1616 111.318 23.3222C111.282 24.4451 110.623 25.3104 109.547 25.6474C108.565 25.9552 107.436 25.575 106.813 24.7097C105.826 23.3407 104.849 21.9637 103.867 20.5912C101.503 17.2825 99.1385 13.9738 96.7727 10.665C96.6898 10.5495 96.5999 10.4383 96.5134 10.3254C96.4852 10.3351 96.4578 10.3439 96.4305 10.3536Z" fill="white"/>
<path d="M131.923 17.6036C131.776 17.5251 131.615 17.5656 131.459 17.5648C130.606 17.5595 129.753 17.5709 128.901 17.5586C128.126 17.5471 127.444 17.2948 126.952 16.6686C126.319 15.8614 126.227 14.9608 126.628 14.0355C127.031 13.1075 127.793 12.6568 128.79 12.5853C128.871 12.5792 128.951 12.5818 129.032 12.5827C131.043 12.6012 133.054 12.6162 135.065 12.64C135.785 12.648 136.418 12.8835 136.936 13.3995C137.424 13.8847 137.644 14.4889 137.607 15.1496C137.474 17.4721 136.733 19.5847 135.295 21.4292C133.555 23.6591 131.278 25.0484 128.529 25.6738C121.426 27.2889 114.434 22.7453 113.015 15.5959C111.747 9.21135 115.325 2.77296 121.421 0.763554C126.475 -0.902717 131.003 0.184902 134.869 3.86146C135.94 4.88028 135.86 6.54302 134.761 7.44275C133.702 8.30985 132.222 8.18018 131.374 7.32808C130.267 6.21488 128.931 5.50127 127.397 5.18548C122.706 4.22047 118.801 7.23987 117.928 11.1943C116.91 15.8032 119.714 19.7859 123.697 20.7756C125.844 21.3092 127.948 21.1125 129.894 19.9579C130.682 19.4895 131.305 18.8456 131.761 18.0464C131.825 17.9352 131.879 17.8188 131.931 17.7015C131.943 17.6777 131.928 17.6415 131.923 17.6036Z" fill="white"/>
<path d="M11.3603 16.9111C11.557 16.4595 11.7113 16.112 11.8613 15.7618C13.8284 11.1687 15.7945 6.57478 17.7634 1.98172C17.8833 1.70122 17.9927 1.41454 18.1762 1.16579C18.7928 0.328684 19.629 0.027008 20.6328 0.212247C21.649 0.400133 22.2788 1.02024 22.5487 2.01877C22.7137 2.63006 22.5699 3.19548 22.3317 3.7512C21.3755 5.98113 20.4185 8.21018 19.4614 10.4401C17.5349 14.9282 15.6084 19.4172 13.6802 23.9052C13.592 24.1116 13.5055 24.3233 13.3829 24.5095C12.8466 25.321 12.0545 25.6906 11.1142 25.6191C10.1474 25.5459 9.43201 25.0237 9.03948 24.1134C8.3585 22.5345 7.6837 20.9538 7.00537 19.3739C4.79397 14.2208 2.58168 9.06757 0.370279 3.91439C0.28207 3.70798 0.200035 3.49804 0.125057 3.28634C-0.301875 2.07964 0.401152 0.726507 1.67313 0.278404C2.96539 -0.176755 4.3194 0.530683 4.79309 1.65976C5.42026 3.15667 6.07212 4.643 6.71252 6.13373C8.1962 9.58889 9.679 13.0432 11.1627 16.4983C11.2068 16.6006 11.2588 16.6985 11.3603 16.9111Z" fill="white"/>
<path d="M69.0046 14.4889C69.0046 11.6106 69.0046 8.73237 69.0046 5.8541C69.0046 5.74119 69.0063 5.62917 69.0037 5.51626C68.9949 5.15548 68.9949 5.14931 68.6244 5.14843C67.273 5.1449 65.9217 5.14578 64.5694 5.14578C63.989 5.14578 63.4492 5.0117 62.9975 4.63417C62.1913 3.96025 61.9214 3.09139 62.1595 2.08316C62.3871 1.11992 63.0063 0.521857 63.9784 0.29957C64.2148 0.245762 64.4521 0.221064 64.6956 0.221064C69.2004 0.22371 73.7061 0.22371 78.211 0.221946C79.0419 0.221946 79.7714 0.465403 80.2971 1.13579C80.9287 1.94202 81.0301 2.84617 80.6111 3.76707C80.2001 4.67033 79.4335 5.11579 78.4544 5.13784C77.1842 5.16519 75.9122 5.14666 74.6411 5.14755C73.8914 5.14843 73.8914 5.14754 73.8914 5.87703C73.8914 11.5374 73.8914 17.1978 73.8922 22.8582C73.8922 23.1801 73.8799 23.4995 73.8226 23.8179C73.6364 24.8411 72.7455 25.7541 71.3915 25.755C70.0322 25.7567 69.2445 24.8182 69.0751 23.8902C69.0257 23.6185 69.0028 23.3504 69.0028 23.0769C69.0046 20.2128 69.0046 17.3504 69.0046 14.4889Z" fill="white"/>
<path d="M40.6285 16.0121L40.6875 16.0862C40.7487 16.163 40.8366 16.2267 40.9804 16.2994C41.0412 16.3302 41.1026 16.3582 41.1745 16.3909C41.1901 16.398 41.2061 16.4053 41.2228 16.413C41.3106 16.4531 41.4124 16.5006 41.5134 16.5571C41.9727 16.8109 42.4217 17.0672 42.867 17.3214C43.7061 17.8005 44.5325 18.2723 45.392 18.7061C45.593 18.7483 45.7568 18.8427 45.8487 18.8956C45.8595 18.9019 45.8694 18.9076 45.8782 18.9126L45.6331 19.3484M40.6285 16.0121L41.2703 16.994C41.7167 17.2407 42.1597 17.4935 42.6026 17.7463C43.4714 18.2423 44.3402 18.7382 45.2353 19.1869C45.3724 19.2008 45.4876 19.266 45.6046 19.3323C45.6141 19.3376 45.6236 19.343 45.6331 19.3484M40.6285 16.0121L40.5465 15.9647C40.4343 15.9 40.32 15.8332 40.2045 15.7657C39.9604 15.6231 39.7105 15.477 39.4614 15.3388C38.3035 14.6937 37.778 13.3356 38.2655 11.9753L37.7951 11.8065L38.2655 11.9752C38.4921 11.3433 38.8393 10.8894 39.3987 10.6236L39.3987 10.6236L39.4001 10.6229C39.4014 10.6223 39.4042 10.621 39.4081 10.6193C39.4447 10.6032 39.5851 10.5412 39.6892 10.4539C39.6978 10.4467 39.7065 10.4391 39.7152 10.4312M40.6285 16.0121L50.6332 16.3561M45.6331 19.3484L45.8771 18.9119C46.2743 19.134 46.6691 19.3523 47.065 19.5711C47.3706 19.7401 47.6768 19.9094 47.9853 20.0811M45.6331 19.3484C46.03 19.5702 46.4277 19.7901 46.8254 20.01C47.1312 20.1791 47.4369 20.3481 47.7422 20.518M47.9853 20.0811L47.7422 20.518M47.9853 20.0811C47.9852 20.0811 47.9851 20.081 47.9851 20.081L47.7422 20.518M47.9853 20.0811C48.6924 20.4741 49.3974 20.8672 50.102 21.2602C51.0249 21.7748 51.947 22.289 52.8723 22.802L52.8725 22.8021C53.1036 22.9303 53.3344 23.0586 53.565 23.1868C54.6977 23.8164 55.8258 24.4435 56.9646 25.052L56.9646 25.052C57.2849 25.2232 57.5703 25.2666 57.8252 25.2254C58.0831 25.1836 58.3544 25.0477 58.629 24.7851M47.7422 20.518C48.4476 20.91 49.1524 21.3031 49.8572 21.6961C50.7809 22.2113 51.7047 22.7264 52.6299 23.2393C52.8603 23.3672 53.0907 23.4952 53.321 23.6233C54.4537 24.2529 55.5861 24.8824 56.7289 25.493C57.5343 25.9235 58.3114 25.7806 58.9747 25.1463M58.629 24.7851C58.629 24.7852 58.6289 24.7853 58.6288 24.7854L58.9747 25.1463M58.629 24.7851C59.2307 24.2084 59.4721 23.5078 59.4358 22.6411M58.629 24.7851C58.6291 24.7851 58.6292 24.785 58.6292 24.7849L58.9747 25.1463M58.9747 25.1463C59.6954 24.4557 59.9768 23.608 59.9353 22.62M40.3547 10.239C40.2834 10.2007 40.2141 10.1555 40.1445 10.1101C40.0785 10.0671 40.0122 10.0238 39.9435 9.986C39.9353 10.0563 39.917 10.1266 39.8864 10.1951C39.8411 10.2965 39.7779 10.3736 39.7152 10.4312M40.3547 10.239L39.1841 10.1719C39.1958 10.1664 39.2077 10.1609 39.2196 10.1553C39.3362 10.1014 39.4599 10.0442 39.4479 9.8738M40.3547 10.239C41.665 10.9407 42.9701 11.6519 44.2751 12.3631C45.5802 13.0742 46.8852 13.7854 48.1956 14.4871C48.4801 14.6395 48.7634 14.7942 49.0467 14.9489C49.6784 15.2937 50.3098 15.6385 50.9548 15.9576M40.3547 10.239L50.6332 16.3561M39.7152 10.4312C39.7087 10.4275 39.7022 10.4239 39.6957 10.4204C39.6014 10.3693 39.5552 10.3639 39.5139 10.3694L39.4479 9.8738M39.7152 10.4312C39.7606 10.4569 39.8087 10.4881 39.8721 10.5294L39.878 10.5333C39.9434 10.5759 40.0279 10.631 40.118 10.6794L40.1186 10.6798C41.4271 11.3805 42.7305 12.0908 44.0359 12.8021L44.0366 12.8025C45.3412 13.5134 46.6476 14.2253 47.9595 14.9279C48.2364 15.0762 48.5155 15.2285 48.7965 15.382C49.4002 15.7115 50.0131 16.0461 50.6332 16.3561M39.4479 9.8738L39.5344 9.86771C39.5062 9.8679 39.4774 9.86986 39.4479 9.8738ZM50.6332 16.3561C50.7168 16.4465 50.8071 16.5081 50.8824 16.5517C50.9343 16.5817 50.9848 16.6064 51.0214 16.6241C51.0271 16.6269 51.0324 16.6295 51.0375 16.6319C51.0693 16.6473 51.0897 16.6572 51.1095 16.6678L51.1099 16.668C51.962 17.1255 52.8141 17.5819 53.666 18.0382C55.1518 18.8342 56.637 19.6298 58.1208 20.4297M50.6332 16.3561C50.5981 16.3181 50.5641 16.275 50.5329 16.226L50.9548 15.9576M50.6332 16.3561C50.6665 16.3727 50.6997 16.3893 50.733 16.4057L50.9548 15.9576M58.1208 20.4297C58.9878 20.8973 59.3928 21.6215 59.4358 22.6411M58.1208 20.4297L58.3582 19.9896M58.1208 20.4297C58.1208 20.4297 58.1209 20.4297 58.1209 20.4297L58.3582 19.9896M59.4358 22.6411C59.4358 22.6411 59.4358 22.641 59.4358 22.641L59.9353 22.62M59.4358 22.6411L59.9353 22.62M59.9353 22.62C59.8859 21.4477 59.3999 20.5515 58.3582 19.9896M58.3582 19.9896C56.8738 19.1894 55.3873 18.3931 53.9009 17.5969C53.0492 17.1406 52.1976 16.6844 51.3464 16.2275C51.3163 16.2113 51.2853 16.1963 51.2542 16.1813C51.1412 16.1267 51.0274 16.0717 50.9548 15.9576" stroke="white"/>
<path d="M82.7349 12.9435C82.7349 9.63122 82.7349 6.31808 82.7341 3.00583C82.7341 2.74826 82.7526 2.49421 82.7905 2.23841C82.9466 1.16755 83.8587 0.23253 85.2066 0.233412C86.5941 0.234295 87.4885 1.18872 87.6455 2.21724C87.6817 2.45628 87.7082 2.69357 87.7073 2.93614C87.7064 9.6418 87.7055 16.3475 87.7073 23.0531C87.7073 23.9149 87.4903 24.6841 86.7714 25.2231C85.9555 25.8353 85.054 25.9314 84.1313 25.5133C83.2227 25.1022 82.8064 24.3366 82.7393 23.3636C82.727 23.1872 82.7349 23.0099 82.7349 22.8335C82.7349 19.5362 82.7349 16.2399 82.7349 12.9435Z" fill="white"/>
<path d="M24.378 12.9117C24.378 9.59947 24.378 6.28633 24.378 2.97408C24.378 2.7809 24.37 2.58772 24.3859 2.39543C24.4988 0.9929 25.5697 0.118747 26.8681 0.137271C28.2548 0.157559 29.2339 1.11727 29.3177 2.436C29.3256 2.56391 29.323 2.69357 29.323 2.82148C29.323 9.54301 29.3221 16.2646 29.3247 22.9861C29.3247 23.578 29.2401 24.1381 28.881 24.6294C28.2336 25.5159 27.1301 25.8661 26.046 25.5283C25.0413 25.2151 24.3894 24.341 24.3841 23.234C24.3718 20.8056 24.3788 18.378 24.3788 15.9496C24.378 14.9379 24.378 13.9252 24.378 12.9117Z" fill="white"/>
<path d="M50.9554 15.9576C50.8045 16.0211 50.6758 15.9593 50.5461 15.8897C48.9919 15.049 47.4367 14.2093 45.8825 13.3686C45.0912 12.9408 44.3018 12.5086 43.5105 12.0808C42.2668 11.4086 41.0221 10.7382 39.7775 10.0661C39.6655 10.0061 39.5579 9.93819 39.4485 9.87468C37.7372 8.95201 36.0092 8.05845 34.32 7.09697C32.7534 6.20606 32.6308 3.7362 34.0633 2.63447C34.6861 2.15549 35.3371 2.10433 36.0366 2.50392C37.2644 3.20518 38.5055 3.88351 39.7431 4.56713C41.3176 5.43775 42.8948 6.30309 44.4711 7.17106C44.6502 7.18165 44.8143 7.23546 44.9713 7.32543C46.5749 8.24192 48.2015 9.11696 49.8087 10.0273C49.9472 10.1058 50.1051 10.1622 50.1544 10.3395C50.4896 10.5283 50.8134 10.7409 51.1618 10.9014C52.3985 11.4713 52.8598 13.1102 52.4364 14.331C52.17 15.1002 51.6346 15.5845 50.9554 15.9576Z" fill="white"/>
<path d="M50.1162 9.70815C50.3308 9.58918 50.5471 9.46845 50.764 9.34732C51.0815 9.17011 51.4004 8.99205 51.7178 8.81739M50.1162 9.70815L51.9589 9.25545M50.1162 9.70815C50.1128 9.70999 50.1088 9.71212 50.1042 9.71455C50.0975 9.71808 50.0896 9.72225 50.0807 9.72711C49.0327 9.14302 47.9851 8.55874 46.9375 7.97448C46.4558 7.70589 45.9742 7.43729 45.4926 7.16872C46.2235 6.75509 46.9544 6.34143 47.6853 5.92777C49.6627 4.80867 51.6399 3.68961 53.6173 2.5713L53.6173 2.57127C54.5957 2.01775 55.5759 1.46595 56.5566 0.913839C56.6041 0.887286 56.6519 0.863236 56.711 0.833538C56.724 0.827028 56.7375 0.820247 56.7516 0.813109C56.8249 0.776103 56.9131 0.730784 57.0013 0.676131L57.002 0.675742C57.2387 0.528635 57.4484 0.486884 57.6431 0.503386C57.8459 0.520582 58.0692 0.604597 58.3167 0.768003L58.3169 0.768115C59.0144 1.22818 59.3798 1.87002 59.4313 2.71346L59.4313 2.71353C59.4718 3.37613 59.3862 3.939 59.0509 4.42672L59.0507 4.42688C58.8036 4.78664 58.5274 5.06731 58.1826 5.25732M50.1162 9.70815L58.1826 5.25732M51.7178 8.81739L51.9589 9.25545M51.7178 8.81739C51.7178 8.81743 51.7177 8.81748 51.7176 8.81752L51.9589 9.25545M51.7178 8.81739C53.8645 7.63468 56.0111 6.45285 58.1576 5.27106L58.1824 5.25741L58.4237 5.69533M51.9589 9.25545C54.1086 8.07103 56.2584 6.88749 58.4081 5.70395L58.4237 5.69533M58.4237 5.69533L58.1826 5.25732M58.4237 5.69533L58.1826 5.25732" stroke="white"/>
<path d="M40.2958 16.3977C40.9442 16.6033 41.4946 17.0002 42.0856 17.316C43.0453 17.8276 43.9847 18.378 44.9321 18.9135C45.0521 18.9814 45.2144 19.0061 45.2364 19.1852C42.2408 20.8805 39.2329 22.5556 36.255 24.281C35.125 24.9355 34.1644 24.4362 33.644 23.6088C33.5337 23.4324 33.4367 23.2437 33.3608 23.0505C32.8668 21.79 33.3723 20.2251 34.5746 19.5918C36.3396 18.663 38.0756 17.6803 39.8248 16.7215C39.9933 16.6306 40.1697 16.5512 40.2958 16.3977Z" fill="white"/>
<path d="M45.7354 23.4465C46.2893 23.4421 46.7065 23.855 46.7092 24.4098C46.7118 24.9646 46.2972 25.3916 45.7521 25.3951C45.2123 25.3977 44.773 24.9646 44.7686 24.4266C44.765 23.8832 45.1911 23.451 45.7354 23.4465Z" fill="white"/>
<path d="M49.6048 23.4465C50.1587 23.4457 50.5716 23.8603 50.5716 24.4177C50.5716 24.9717 50.1526 25.396 49.6074 25.3951C49.0685 25.3942 48.6318 24.9576 48.6318 24.4195C48.631 23.8761 49.0605 23.4474 49.6048 23.4465Z" fill="white"/>
<path d="M40.967 24.4415C40.9564 23.8841 41.3631 23.4545 41.91 23.4465C42.4551 23.4386 42.9023 23.8611 42.9129 24.3939C42.9226 24.9258 42.4868 25.381 41.9558 25.3942C41.4098 25.4083 40.9776 24.9911 40.967 24.4415Z" fill="white"/>
</svg>
